<?xml version="1.0" standalone="no"?>
<!DOCTYPE svg PUBLIC "-//W3C//DTD SVG 20010904//EN"
 "http://www.w3.org/TR/2001/REC-SVG-20010904/DTD/svg10.dtd">
<svg version="1.0" xmlns="http://www.w3.org/2000/svg"
 width="144.000000pt" height="60.000000pt" viewBox="0 0 144.000000 60.000000"
 preserveAspectRatio="xMidYMid meet">

<g transform="translate(0.000000,60.000000) scale(0.100000,-0.100000)"
fill="#000000" stroke="none">
<path d="M0 300 l0 -300 720 0 720 0 0 300 0 300 -720 0 -720 0 0 -300z m374
113 c3 -21 6 -52 6 -70 0 -17 5 -35 10 -38 9 -5 60 -97 60 -108 0 -7 -44 -5
-66 3 -18 7 -36 5 -62 -5 l-36 -16 22 24 c12 13 21 34 21 48 -2 21 -2 22 -6 3
-2 -12 -16 -32 -30 -45 l-25 -24 27 55 c15 30 31 57 35 60 4 3 11 38 15 78 8
79 19 93 29 35z m126 -94 c0 -44 -4 -68 -10 -64 -18 11 -12 135 7 135 2 0 3
-32 3 -71z m101 25 l34 -46 3 38 c6 72 22 61 22 -14 0 -40 -2 -72 -4 -72 -2 0
-23 23 -45 51 l-41 52 0 -46 c0 -25 -4 -49 -10 -52 -6 -4 -10 20 -10 64 0 39
4 71 8 71 5 0 24 -21 43 -46z m199 36 c0 -5 -16 -10 -35 -10 -28 0 -35 -4 -35
-20 0 -15 7 -20 26 -20 14 0 23 -4 19 -10 -3 -5 -15 -10 -26 -10 -14 0 -19 -7
-19 -30 0 -16 -4 -30 -10 -30 -6 0 -10 30 -10 70 l0 70 45 0 c25 0 45 -4 45
-10z m50 -54 c0 -36 -4 -68 -10 -71 -6 -4 -10 20 -10 64 0 41 4 71 10 71 6 0
10 -28 10 -64z m97 13 l38 -50 3 50 c2 28 7 51 13 51 12 0 12 -127 0 -134 -5
-4 -27 17 -48 46 l-38 53 -3 -53 c-5 -77 -22 -63 -22 18 0 39 4 70 10 70 5 0
27 -23 47 -51z m203 41 c0 -5 -11 -10 -25 -10 -24 0 -25 -3 -27 -62 l-2 -63
-3 63 c-4 58 -5 62 -28 62 -14 0 -25 5 -25 10 0 6 25 10 55 10 30 0 55 -4 55
-10z m-488 -174 c7 4 8 2 4 -4 -12 -20 -26 -13 -25 11 1 17 2 18 6 4 2 -9 9
-14 15 -11z m264 -14 c-4 -3 -12 0 -19 8 -9 10 -9 11 1 6 7 -5 12 -1 13 11 1
17 2 17 6 0 3 -10 2 -21 -1 -25z m-226 14 c0 -3 -4 -8 -10 -11 -5 -3 -10 -1
-10 4 0 6 5 11 10 11 6 0 10 -2 10 -4z m160 0 c0 -3 -4 -8 -10 -11 -5 -3 -10
-1 -10 4 0 6 5 11 10 11 6 0 10 -2 10 -4z m100 -6 c0 -5 -4 -10 -10 -10 -5 0
-10 5 -10 10 0 6 5 10 10 10 6 0 10 -4 10 -10z"/>
<path d="M391 264 c-1 -21 6 -37 22 -50 22 -19 22 -19 5 1 -9 11 -18 34 -21
50 l-4 30 -2 -31z"/>
</g>
</svg>
